<svg width="106" height="15" viewBox="0 0 106 15" fill="none" xmlns="http://www.w3.org/2000/svg">
<path d="M14.1314 12.3834C12.783 13.9119 10.5985 14.9482 8.00957 14.9482C3.64071 14.9482 0 11.943 0 7.48705C0 3.00518 3.74859 0 7.9826 0C9.14224 0 10.194 0.207254 11.1918 0.595855C12.1087 0.958549 13.1605 1.63212 13.8077 2.38342L11.084 4.2228C10.3288 3.49741 9.25011 3.0829 7.9826 3.0829C5.28578 3.0829 3.58678 5.07772 3.58678 7.46114C3.58678 9.84456 5.28578 11.8394 7.9826 11.8394C8.62984 11.8394 9.25011 11.7358 9.78947 11.5026C10.3828 11.2694 10.8952 10.9326 11.3536 10.4922L14.1314 12.3834ZM46.3584 7.48705C46.3584 12.0725 42.6907 14.9741 38.3488 14.9741C34.007 14.9741 30.3662 11.9689 30.3662 7.48705C30.3662 3.03109 34.1148 0 38.3488 0C42.6098 0.0259067 46.3584 2.90155 46.3584 7.48705ZM42.7447 7.48705C42.7447 5.07772 41.0457 3.10881 38.3488 3.10881C35.652 3.10881 33.953 5.10363 33.953 7.48705C33.953 9.87047 35.652 11.8653 38.3488 11.8653C41.0457 11.8653 42.7447 9.89637 42.7447 7.48705ZM24.7029 14.7409L21.9252 10.6736H19.6059V14.7409H16.1V0.284974H21.4398C22.1679 0.284974 23.4893 0.362694 24.0826 0.466321C27.184 1.03627 28.8291 2.82383 28.8291 5.51813C28.8291 6.89119 28.4245 7.82383 27.5616 8.73057C27.1301 9.19689 26.2671 9.68912 25.485 10.0518L28.9639 14.7668L24.7029 14.7409ZM19.6059 7.87565H21.8982C24.5681 7.87565 25.2153 7.09845 25.2153 5.54404C25.2153 4.30052 24.5141 3.23834 22.0061 3.23834H19.6059V7.87565ZM59.2762 10.5181C58.8447 10.9326 58.3054 11.2953 57.7121 11.5285C57.1727 11.7358 56.5794 11.8653 55.9052 11.8653C53.2353 11.8653 51.5094 9.87047 51.5094 7.48705C51.5094 5.07772 53.2084 3.10881 55.9052 3.10881C57.1727 3.10881 58.2514 3.54922 59.0065 4.2487L61.6764 2.40933C61.0561 1.65803 60.0313 0.958549 59.1144 0.621762C58.0896 0.233161 57.0378 0.0259067 55.9052 0.0259067C51.6712 0.0259067 47.9226 3.03109 47.9226 7.51295C47.9226 11.9689 51.5633 15 55.9052 15C58.5211 15 60.6516 13.9637 62 12.4352L59.2762 10.5181Z" fill="white"/>
<path d="M71.1338 5.44034C70.8088 5.77713 70.1316 6.03619 69.4002 6.03619C67.7478 6.03619 66.6101 4.99993 66.6101 3.39371C66.6101 1.94293 67.5582 0.751221 69.4002 0.751221C70.1045 0.751221 70.7004 0.984381 71.0255 1.29526L70.4837 2.17609C70.1858 2.02065 69.8878 1.86521 69.4002 1.86521C68.5876 1.86521 67.9103 2.40925 67.9103 3.41961C67.9103 4.32635 68.5605 4.97402 69.5356 4.97402C69.9149 4.97402 70.3483 4.87039 70.7004 4.61132L71.1338 5.44034Z" fill="white"/>
<path d="M72.7319 0.854858H73.9509V4.8704H76.118V5.95849H72.7319V0.854858Z" fill="white"/>
<path d="M79.9104 0.751221C81.5357 0.751221 82.7547 1.76158 82.7547 3.39371C82.7547 4.94811 81.5357 6.03619 79.9104 6.03619C78.2851 6.03619 77.0662 5.02583 77.0662 3.39371C77.0662 1.91702 78.2039 0.751221 79.9104 0.751221ZM79.9104 4.94811C80.9127 4.94811 81.4545 4.27454 81.4545 3.39371C81.4545 2.46107 80.7773 1.8393 79.9104 1.8393C79.0165 1.8393 78.3664 2.46107 78.3664 3.39371C78.3664 4.27454 79.0436 4.94811 79.9104 4.94811Z" fill="white"/>
<path d="M88.9036 3.83413C88.9036 5.38854 87.8743 6.03621 86.7366 6.03621C85.3551 6.03621 84.407 5.28491 84.407 3.78232V0.854858H85.626V3.54916C85.626 4.35227 85.8697 4.94812 86.7366 4.94812C87.468 4.94812 87.6847 4.42999 87.6847 3.62688V0.854858H88.9036V3.83413Z" fill="white"/>
<path d="M90.9624 0.854764H91.0707C91.3416 0.854764 92.2897 0.828857 92.6419 0.828857C94.7818 0.828857 95.6216 1.99466 95.6216 3.36772C95.6216 4.79259 94.5922 5.9843 92.5606 5.9843C92.2897 5.9843 91.5854 5.95839 91.0707 5.95839H90.9353V0.854764H90.9624ZM92.1814 1.94285V4.8444C92.3439 4.87031 92.4522 4.87031 92.6148 4.87031C93.6712 4.87031 94.3484 4.32627 94.3484 3.36772C94.3484 2.43508 93.617 1.94285 92.6419 1.94285C92.5064 1.91694 92.3439 1.91694 92.1814 1.94285Z" fill="white"/>
<path d="M66.7185 10.9584C66.7185 10.1812 67.3686 9.48169 68.4521 9.48169C69.1293 9.48169 69.6982 9.68894 70.0232 10.0516L69.3731 10.9325C69.1293 10.7252 68.9668 10.5957 68.5605 10.5957C68.2354 10.5957 68.0187 10.7511 68.0187 10.9843C68.0187 11.8392 70.2399 11.6319 70.2399 13.29C70.2399 14.1708 69.4273 14.7926 68.425 14.7926C67.7207 14.7926 66.881 14.5076 66.6101 13.9636L67.3144 13.1604C67.6124 13.5231 68.0729 13.7045 68.4521 13.7045C68.7772 13.7045 68.9668 13.549 68.9668 13.3159C68.9397 12.5128 66.7185 12.6164 66.7185 10.9584Z" fill="white"/>
<path d="M71.9736 9.58545H75.1429V10.6735H73.1926V11.5803H74.8992V12.6684H73.1926V13.601H75.1971V14.6891H71.9736V9.58545Z" fill="white"/>
<path d="M78.3391 13.3938V14.6891H77.1201V9.58548C77.4181 9.58548 78.6912 9.55957 78.8809 9.55957C80.3978 9.55957 81.0208 10.4404 81.0208 11.4249C81.0208 12.3575 80.4791 12.7979 80.0727 13.0311L81.4001 14.6632H79.9102L78.9621 13.3679H78.3391V13.3938ZM79.7206 11.4767C79.7206 11.0881 79.5581 10.6736 78.9079 10.6736C78.6641 10.6736 78.5558 10.6736 78.312 10.6995V12.3057H78.7454C79.3143 12.3057 79.7206 12.0984 79.7206 11.4767Z" fill="white"/>
<path d="M85.1113 14.6891H84.1632L82.0503 9.58545H83.3505L84.6779 12.9533L85.951 9.58545H87.17L85.1113 14.6891Z" fill="white"/>
<path d="M88.6599 9.58545H89.8789V14.6891H88.6599V9.58545Z" fill="white"/>
<path d="M96.2176 14.1708C95.8925 14.5076 95.2153 14.7667 94.4839 14.7667C92.8316 14.7667 91.6938 13.7304 91.6938 12.1242C91.6938 10.6734 92.6419 9.48169 94.4839 9.48169C95.1882 9.48169 95.7842 9.71485 96.1092 10.0257L95.5675 10.9066C95.2695 10.7511 94.9715 10.5957 94.4839 10.5957C93.6713 10.5957 92.9941 11.1397 92.9941 12.1501C92.9941 13.0568 93.6442 13.7045 94.6194 13.7045C94.9986 13.7045 95.432 13.6009 95.7842 13.3418L96.2176 14.1708Z" fill="white"/>
<path d="M97.5989 9.58545H100.768V10.6735H98.8178V11.5803H100.524V12.6684H98.8178V13.601H100.822V14.6891H97.5989V9.58545Z" fill="white"/>
<path d="M102.475 10.9584C102.475 10.1812 103.125 9.48169 104.208 9.48169C104.886 9.48169 105.455 9.68894 105.78 10.0516L105.129 10.9325C104.886 10.7252 104.723 10.5957 104.317 10.5957C103.992 10.5957 103.775 10.7511 103.775 10.9843C103.775 11.8392 105.996 11.6319 105.996 13.29C105.996 14.1708 105.184 14.7926 104.181 14.7926C103.477 14.7926 102.637 14.5076 102.366 13.9636L103.071 13.1604C103.369 13.5231 103.829 13.7045 104.208 13.7045C104.534 13.7045 104.723 13.549 104.723 13.3159C104.696 12.5128 102.475 12.6164 102.475 10.9584Z" fill="white"/>
</svg>
